<?xml version="1.0" encoding="UTF-8"?>
<svg xmlns="http://www.w3.org/2000/svg" viewBox="0 0 3176.99 560">
  <defs>
    <style>
      .cls-1 { fill: #fff; }
      .cls-2 { fill: #3DA8A3; }
    </style>
  </defs>
  <g>
    <path class="cls-2" d="M1331.98,222.58c41.39-41.42,103.91-48.88,152.93-22.35l53.65-53.65c-79.15-54.58-188.41-46.67-258.82,23.77-70.44,70.4-78.35,179.67-23.77,258.82l53.65-53.65c-26.53-49.02-19.07-111.55,22.35-152.93Z"/>
    <path class="cls-2" d="M1567.06,457.66c70.44-70.44,78.35-179.7,23.73-258.85l-53.65,53.65c26.53,49.02,19.07,111.55-22.32,152.97-41.42,41.39-103.95,48.85-152.93,22.32l-53.65,53.65c79.15,54.62,188.38,46.71,258.82-23.73Z"/>
    <path class="cls-1" d="M2973.79,110.82c-112.21,0-203.16,90.96-203.16,203.16s90.96,203.16,203.16,203.16,203.2-90.96,203.2-203.16-90.96-203.16-203.2-203.16ZM2973.79,443.29c-71.37,0-129.27-57.9-129.27-129.3s57.9-129.27,129.27-129.27,129.3,57.87,129.3,129.27-57.9,129.3-129.3,129.3Z"/>
    <path class="cls-1" d="M2309.96,110.82c-49.12,0-94.2,17.41-129.3,46.46v-46.46h-73.88v202.02c0,.38-.02.76-.02,1.15s.01.76.02,1.15v337.79h73.88v-182.23c35.1,29.05,80.18,46.46,129.3,46.46,112.2,0,203.16-90.96,203.16-203.16s-90.96-203.16-203.16-203.16ZM2309.96,443.29c-71.37,0-129.24-57.84-129.3-129.19v-.23c.06-71.35,57.93-129.16,129.3-129.16s129.27,57.87,129.27,129.27-57.87,129.3-129.27,129.3Z"/>
    <path class="cls-1" d="M1072.46,110.82h-18.47c-49.12,0-94.16,17.43-129.29,46.44v-46.44h-73.88v406.34h73.88v-203.17c0-71.4,57.89-129.29,129.29-129.29h18.47v-73.88Z"/>
    <path class="cls-1" d="M1995.96,517.16h73.88v-203.17c0-112.21-90.96-203.17-203.17-203.17-49.12,0-94.16,17.43-129.29,46.44v-46.44h-73.88v406.34h73.88v-203.17c0-71.4,57.89-129.29,129.29-129.29s129.29,57.89,129.29,129.29v203.17Z"/>
    <path class="cls-1" d="M2771.7,110.82h-18.47c-49.12,0-94.16,17.43-129.29,46.44v-46.44h-73.88v406.34h73.88v-203.17c0-71.4,57.89-129.29,129.29-129.29h18.47v-73.88Z"/>
    <polygon class="cls-1" points="1109.4 313.99 1109.4 517.16 1183.28 517.16 1183.28 110.82 1109.4 110.82 1109.4 313.99"/>
    <path class="cls-1" d="M740.01,313.99c0,71.4-57.89,129.29-129.29,129.29s-129.29-57.89-129.29-129.29V110.82h-73.88v203.17c0,112.21,90.97,203.17,203.17,203.17,49.12,0,94.16-17.43,129.29-46.44v46.44h73.88V110.82h-73.88v203.17Z"/>
    <path class="cls-1" d="M1146.34,0c-20.4,0-36.94,16.54-36.94,36.94s16.54,36.94,36.94,36.94,36.94-16.54,36.94-36.94S1166.75,0,1146.34,0Z"/>
    <polygon class="cls-1" points="352.42 301.63 276.93 0 203.04 0 278.53 301.63 127.71 301.63 203.03 0 129.14 0 0 517.15 73.89 517.15 109.26 375.51 297.02 375.51 332.47 517.15 406.36 517.15 370.91 375.51 352.42 301.63"/>
  </g>
</svg>
