<?xml version="1.0" encoding="UTF-8"?>
<svg xmlns="http://www.w3.org/2000/svg" id="Layer_2" data-name="Layer 2" viewBox="0 0 3176.99 928.03">
  <defs>
    <style>
      .cls-1 {
        fill: #fff;
      }

      .cls-2 {
        fill: #278d88;
      }
    </style>
  </defs>
  <g id="Layer_1-2" data-name="Layer 1">
    <g>
      <polygon class="cls-1" points="583.9 792.66 565.55 792.66 565.55 928.03 643.44 928.03 643.44 910.99 583.9 910.99 583.9 792.66"></polygon>
      <polygon class="cls-1" points="719.45 928.03 802.03 928.03 802.03 910.99 737.8 910.99 737.8 868.12 795.66 868.12 795.66 851.83 737.8 851.83 737.8 809.51 802.03 809.51 802.03 792.66 719.45 792.66 719.45 928.03"></polygon>
      <path class="cls-1" d="M920.73,792.66l-49.43,135.38h19.1l11.98-33.7h56.92l12.17,33.7h19.29l-49.62-135.38h-20.41ZM908,878.41l20.6-56.55c.94-2.81,1.87-5.99,2.25-7.86.37,2.06,1.31,5.24,2.25,7.86l20.78,56.55h-45.87Z"></path>
      <path class="cls-1" d="M1108.9,792.66h-44v135.38h44.75c40.07,0,67.03-27.34,67.03-67.59s-27.34-67.78-67.78-67.78ZM1108.34,910.99h-25.09v-101.48h24.34c30.9,0,49.99,19.47,49.99,50.93s-19.1,50.55-49.24,50.55Z"></path>
      <polygon class="cls-1" points="1350.42 809.51 1391.24 809.51 1391.24 928.03 1409.59 928.03 1409.59 809.51 1450.22 809.51 1450.22 792.66 1350.42 792.66 1350.42 809.51"></polygon>
      <polygon class="cls-1" points="1610.31 850.89 1543.28 850.89 1543.28 792.66 1524.93 792.66 1524.93 928.03 1543.28 928.03 1543.28 867.93 1610.31 867.93 1610.31 928.03 1628.66 928.03 1628.66 792.66 1610.31 792.66 1610.31 850.89"></polygon>
      <polygon class="cls-1" points="1716.28 928.03 1798.85 928.03 1798.85 910.99 1734.63 910.99 1734.63 868.12 1792.48 868.12 1792.48 851.83 1734.63 851.83 1734.63 809.51 1798.85 809.51 1798.85 792.66 1716.28 792.66 1716.28 928.03"></polygon>
      <polygon class="cls-1" points="2076.51 897.33 2007.24 792.66 1988.89 792.66 1988.89 928.03 2007.24 928.03 2007.24 823.36 2076.51 928.03 2094.86 928.03 2094.86 792.66 2076.51 792.66 2076.51 897.33"></polygon>
      <polygon class="cls-1" points="2182.49 928.03 2265.06 928.03 2265.06 910.99 2200.84 910.99 2200.84 868.12 2258.69 868.12 2258.69 851.83 2200.84 851.83 2200.84 809.51 2265.06 809.51 2265.06 792.66 2182.49 792.66 2182.49 928.03"></polygon>
      <path class="cls-1" d="M2449.67,792.66h-21.16l-35.76,53.93c-3.93-7.49-8.43-14.98-14.42-23.78l-21.16-30.15h-21.91l46.25,67.78-46.44,67.59h21.53l36.33-53.55c4.49,7.86,9.55,16.1,14.79,23.78l20.78,29.77h21.72l-45.87-67.78,45.31-67.59Z"></path>
      <polygon class="cls-1" points="2511.64 809.51 2552.46 809.51 2552.46 928.03 2570.81 928.03 2570.81 809.51 2611.44 809.51 2611.44 792.66 2511.64 792.66 2511.64 809.51"></polygon>
      <path class="cls-2" d="M1331.98,222.58c41.39-41.42,103.91-48.88,152.93-22.35l53.65-53.65c-79.15-54.58-188.41-46.67-258.82,23.77-70.44,70.4-78.35,179.67-23.77,258.82l53.65-53.65c-26.53-49.02-19.07-111.55,22.35-152.93Z"></path>
      <path class="cls-2" d="M1567.06,457.66c70.44-70.44,78.35-179.7,23.73-258.85l-53.65,53.65c26.53,49.02,19.07,111.55-22.32,152.97-41.42,41.39-103.95,48.85-152.93,22.32l-53.65,53.65c79.15,54.62,188.38,46.71,258.82-23.73Z"></path>
      <path class="cls-1" d="M2973.79,110.82c-112.21,0-203.16,90.96-203.16,203.16s90.96,203.16,203.16,203.16,203.2-90.96,203.2-203.16-90.96-203.16-203.2-203.16ZM2973.79,443.29c-71.37,0-129.27-57.9-129.27-129.3s57.9-129.27,129.27-129.27,129.3,57.87,129.3,129.27-57.9,129.3-129.3,129.3Z"></path>
      <path class="cls-1" d="M2309.96,110.82c-49.12,0-94.2,17.41-129.3,46.46v-46.46h-73.88v202.02c0,.38-.02.76-.02,1.15s.01.76.02,1.15v337.79h73.88v-182.23c35.1,29.05,80.18,46.46,129.3,46.46,112.2,0,203.16-90.96,203.16-203.16s-90.96-203.16-203.16-203.16ZM2309.96,443.29c-71.37,0-129.24-57.84-129.3-129.19v-.23c.06-71.35,57.93-129.16,129.3-129.16s129.27,57.87,129.27,129.27-57.87,129.3-129.27,129.3Z"></path>
      <path class="cls-1" d="M1072.46,110.82h-18.47c-49.12,0-94.16,17.43-129.29,46.44v-46.44h-73.88v406.34h73.88v-203.17c0-71.4,57.89-129.29,129.29-129.29h18.47v-73.88Z"></path>
      <path class="cls-1" d="M1995.96,517.16h73.88v-203.17c0-112.21-90.96-203.17-203.17-203.17-49.12,0-94.16,17.43-129.29,46.44v-46.44h-73.88v406.34h73.88v-203.17c0-71.4,57.89-129.29,129.29-129.29s129.29,57.89,129.29,129.29v203.17Z"></path>
      <path class="cls-1" d="M2771.7,110.82h-18.47c-49.12,0-94.16,17.43-129.29,46.44v-46.44h-73.88v406.34h73.88v-203.17c0-71.4,57.89-129.29,129.29-129.29h18.47v-73.88Z"></path>
      <polygon class="cls-1" points="1109.4 313.99 1109.4 517.16 1183.28 517.16 1183.28 110.82 1109.4 110.82 1109.4 313.99"></polygon>
      <path class="cls-1" d="M740.01,313.99c0,71.4-57.89,129.29-129.29,129.29s-129.29-57.89-129.29-129.29V110.82h-73.88v203.17c0,112.21,90.97,203.17,203.17,203.17,49.12,0,94.16-17.43,129.29-46.44v46.44h73.88V110.82h-73.88v203.17Z"></path>
      <path class="cls-1" d="M1146.34,0c-20.4,0-36.94,16.54-36.94,36.94s16.54,36.94,36.94,36.94,36.94-16.54,36.94-36.94S1166.75,0,1146.34,0Z"></path>
      <polygon class="cls-1" points="352.42 301.63 276.93 0 203.04 0 278.53 301.63 127.71 301.63 203.03 0 129.14 0 0 517.15 73.89 517.15 109.26 375.51 297.02 375.51 332.47 517.15 406.36 517.15 370.91 375.51 352.42 301.63"></polygon>
    </g>
  </g>
</svg>
